<svg xmlns="http://www.w3.org/2000/svg" width="640" height="373" viewBox="-48 -48 3360 1960" preserveAspectRatio="xMidYMid meet" font-family="Inter, ui-sans-serif, system-ui, -apple-system, Segoe UI, sans-serif"><rect x="-48" y="-48" width="3360" height="1960" fill="#F5F5F5"/><rect x="33" y="33" width="3198" height="1798" rx="8.5" fill="#FFFFFF" stroke="#E6E6E6" stroke-width="2"/><rect x="129" y="561" width="1422" height="974" rx="8.5" fill="#F9F9F9" stroke="#E6E6E6" stroke-width="2"/><rect x="1713" y="561" width="1422" height="974" rx="8.5" fill="#F9F9F9" stroke="#E6E6E6" stroke-width="2"/><path d="M 1632 186 L 1632 262" fill="none" stroke="#14AE5C" stroke-width="4" stroke-linecap="butt"/><polygon points="1632,264 1622,244 1642,244" fill="#14AE5C"/><path d="M 1338 200 L 1345 200 Q 1352 200 1359 200 L 1388.1 200 Q 1409.6 200 1409.6 221.5 L 1409.6 314.5 Q 1409.6 336 1431.1 336 L 1460.2 336 Q 1467.2 336 1474.2 336 L 1481.2 336" fill="none" stroke="#14AE5C" stroke-width="4" stroke-linecap="butt"/><polygon points="1483.2,336 1463.2,346 1463.2,326" fill="#14AE5C"/><path d="M 1338 312 L 1345 312 Q 1352 312 1359 312 L 1397.6 312 Q 1409.6 312 1409.6 324 L 1409.6 324 Q 1409.6 336 1421.6 336 L 1460.2 336 Q 1467.2 336 1474.2 336 L 1481.2 336" fill="none" stroke="#14AE5C" stroke-width="4" stroke-linecap="butt"/><polygon points="1483.2,336 1463.2,346 1463.2,326" fill="#14AE5C"/><path d="M 1338 424 L 1345 424 Q 1352 424 1359 424 L 1388.1 424 Q 1409.6 424 1409.6 402.5 L 1409.6 357.5 Q 1409.6 336 1431.1 336 L 1460.2 336 Q 1467.2 336 1474.2 336 L 1481.2 336" fill="none" stroke="#14AE5C" stroke-width="4" stroke-linecap="butt"/><polygon points="1483.2,336 1463.2,346 1463.2,326" fill="#14AE5C"/><path d="M 1491.2 326 L 1491.2 273.5 Q 1491.2 252 1469.7 252 L 997.5 252 Q 976 252 976 273.5 L 976 690.5 Q 976 712 954.5 712 L 506 712" fill="none" stroke="#F24822" stroke-width="4" stroke-linecap="butt"/><polygon points="504,712 524,702 524,722" fill="#F24822"/><path d="M 1782.8 336 L 1789.8 336 Q 1796.8 336 1803.8 336 L 1992.9 336 Q 2014.4 336 2014.4 357.5 L 2014.4 626.5 Q 2014.4 648 2035.9 648 L 2225 648 Q 2232 648 2239 648 L 2246 648" fill="none" stroke="#F24822" stroke-width="4" stroke-linecap="butt"/><polygon points="2248,648 2228,658 2228,638" fill="#F24822"/><path d="M 506 712 L 513 712 Q 520 712 513 712 L 512 712 Q 504 712 504 720 L 504 832 Q 504 840 496 840 L 495 840 Q 488 840 495 840 L 502 840" fill="none" stroke="#369E94" stroke-width="4" stroke-linecap="butt"/><polygon points="504,840 484,850 484,830" fill="#369E94"/><path d="M 778 840 L 1014 840" fill="none" stroke="#369E94" stroke-width="4" stroke-linecap="butt"/><polygon points="1016,840 996,850 996,830" fill="#369E94"/><path d="M 1152 890 L 1152 1350" fill="none" stroke="#369E94" stroke-width="4" stroke-linecap="butt"/><polygon points="1152,1352 1142,1332 1162,1332" fill="#369E94"/><path d="M 1152 1450 L 1152 1462" fill="none" stroke="#14AE5C" stroke-width="4" stroke-linecap="butt"/><polygon points="1152,1464 1142,1444 1162,1444" fill="#14AE5C"/><path d="M 502 840 L 453.5 840 Q 432 840 432 861.5 L 432 934.5 Q 432 956 410.5 956 L 393.5 956 Q 372 956 372 977.5 L 372 1011 Q 372 1016 367 1016 L 362 1016" fill="none" stroke="#369E94" stroke-width="4" stroke-linecap="butt"/><polygon points="360,1016 380,1006 380,1026" fill="#369E94"/><path d="M 640 890 L 640 897 Q 640 904 640 911 L 640 916 Q 640 928 628 928 L 524 928 Q 512 928 512 940 L 512 945 Q 512 952 512 959 L 512 966" fill="none" stroke="#369E94" stroke-width="4" stroke-linecap="butt"/><polygon points="512,968 502,948 522,948" fill="#369E94"/><path d="M 640 890 L 640 897 Q 640 904 640 911 L 640 916 Q 640 928 652 928 L 756 928 Q 768 928 768 940 L 768 945 Q 768 952 768 959 L 768 966" fill="none" stroke="#369E94" stroke-width="4" stroke-linecap="butt"/><polygon points="768,968 758,948 778,948" fill="#369E94"/><path d="M 2246 648 L 2239 648 Q 2232 648 2225 648 L 2205.5 648 Q 2184 648 2184 669.5 L 2184 786.5 Q 2184 808 2162.5 808 L 2143 808 Q 2136 808 2129 808 L 2122 808" fill="none" stroke="#EB7500" stroke-width="4" stroke-linecap="butt"/><polygon points="2120,808 2140,798 2140,818" fill="#EB7500"/><path d="M 2602 648 L 2609 648 Q 2616 648 2623 648 L 2642.5 648 Q 2664 648 2664 669.5 L 2664 786.5 Q 2664 808 2685.5 808 L 2705 808 Q 2712 808 2719 808 L 2726 808" fill="none" stroke="#EB7500" stroke-width="4" stroke-linecap="butt"/><polygon points="2728,808 2708,818 2708,798" fill="#EB7500"/><path d="M 1984 858 L 1984 966" fill="none" stroke="#EB7500" stroke-width="4" stroke-linecap="butt"/><polygon points="1984,968 1974,948 1994,948" fill="#EB7500"/><path d="M 2864 858 L 2864 966" fill="none" stroke="#EB7500" stroke-width="4" stroke-linecap="butt"/><polygon points="2864,968 2854,948 2874,948" fill="#EB7500"/><path d="M 2122 1016 L 2129 1016 Q 2136 1016 2143 1016 L 2186.5 1016 Q 2208 1016 2208 1037.5 L 2208 1170.5 Q 2208 1192 2229.5 1192 L 2273 1192 Q 2280 1192 2287 1192 L 2294 1192" fill="none" stroke="#EB7500" stroke-width="4" stroke-linecap="butt"/><polygon points="2296,1192 2276,1202 2276,1182" fill="#EB7500"/><rect x="2162.4" y="1089" width="91.2" height="30" rx="15" fill="#F5F5F5" stroke="#D9D9D9" stroke-width="1"/><text x="2208" y="1104" fill="#000000" font-size="16" font-weight="700" text-anchor="middle" dominant-baseline="central">results</text><path d="M 2726 1016 L 2719 1016 Q 2712 1016 2705 1016 L 2669.5 1016 Q 2648 1016 2648 1037.5 L 2648 1170.5 Q 2648 1192 2626.5 1192 L 2591 1192 Q 2584 1192 2577 1192 L 2570 1192" fill="none" stroke="#EB7500" stroke-width="4" stroke-linecap="butt"/><polygon points="2568,1192 2588,1182 2588,1202" fill="#EB7500"/><rect x="2602.4" y="1089" width="91.2" height="30" rx="15" fill="#F5F5F5" stroke="#D9D9D9" stroke-width="1"/><text x="2648" y="1104" fill="#000000" font-size="16" font-weight="700" text-anchor="middle" dominant-baseline="central">results</text><path d="M 2432 1242 L 2432 1350" fill="none" stroke="#369E94" stroke-width="4" stroke-linecap="butt"/><polygon points="2432,1352 2422,1332 2442,1332" fill="#369E94"/><path d="M 2432 1450 L 2432 1462" fill="none" stroke="#14AE5C" stroke-width="4" stroke-linecap="butt"/><polygon points="2432,1464 2422,1444 2442,1444" fill="#14AE5C"/><path d="M 2428 698 L 2428 822" fill="none" stroke="#757575" stroke-width="4" stroke-linecap="butt"/><polygon points="2428,824 2418,804 2438,804" fill="#757575"/><rect x="2368" y="745" width="120" height="30" rx="15" fill="#F5F5F5" stroke="#D9D9D9" stroke-width="1"/><text x="2428" y="760" fill="#000000" font-size="16" font-weight="700" text-anchor="middle" dominant-baseline="central">route plan</text><path d="M 2294 888 L 2287 888 Q 2280 888 2273 888 L 2229.5 888 Q 2208 888 2208 909.5 L 2208 994.5 Q 2208 1016 2186.5 1016 L 2143 1016 Q 2136 1016 2129 1016 L 2122 1016" fill="none" stroke="#757575" stroke-width="4" stroke-linecap="butt" stroke-dasharray="19 7"/><polygon points="2120,1016 2140,1006 2140,1026" fill="#757575"/><rect x="2172" y="937" width="72" height="30" rx="15" fill="#F5F5F5" stroke="#D9D9D9" stroke-width="1"/><text x="2208" y="952" fill="#000000" font-size="16" font-weight="700" text-anchor="middle" dominant-baseline="central">dense</text><path d="M 2570 888 L 2577 888 Q 2584 888 2591 888 L 2626.5 888 Q 2648 888 2648 909.5 L 2648 994.5 Q 2648 1016 2669.5 1016 L 2705 1016 Q 2712 1016 2719 1016 L 2726 1016" fill="none" stroke="#757575" stroke-width="4" stroke-linecap="butt" stroke-dasharray="19 7"/><polygon points="2728,1016 2708,1026 2708,1006" fill="#757575"/><rect x="2607.2" y="937" width="81.6" height="30" rx="15" fill="#F5F5F5" stroke="#D9D9D9" stroke-width="1"/><text x="2648" y="952" fill="#000000" font-size="16" font-weight="700" text-anchor="middle" dominant-baseline="central">sparse</text><path d="M 1290 1400 L 2294 1400" fill="none" stroke="#757575" stroke-width="4" stroke-linecap="butt" stroke-dasharray="19 7"/><polygon points="2296,1400 2276,1410 2276,1390" fill="#757575"/><rect x="1736.8" y="1385" width="110.4" height="30" rx="15" fill="#F5F5F5" stroke="#D9D9D9" stroke-width="1"/><text x="1792" y="1400" fill="#000000" font-size="16" font-weight="700" text-anchor="middle" dominant-baseline="central">same role</text><path d="M 778 840 L 982.5 840 Q 1004 840 1004 861.5 L 1004 878.5 Q 1004 900 1025.5 900 L 1514.5 900 Q 1536 900 1536 921.5 L 1536 1170.5 Q 1536 1192 1557.5 1192 L 2294 1192" fill="none" stroke="#757575" stroke-width="4" stroke-linecap="butt" stroke-dasharray="19 7"/><polygon points="2296,1192 2276,1202 2276,1182" fill="#757575"/><rect x="1456.8" y="1001" width="158.4" height="30" rx="15" fill="#F5F5F5" stroke="#D9D9D9" stroke-width="1"/><text x="1536" y="1016" fill="#000000" font-size="16" font-weight="700" text-anchor="middle" dominant-baseline="central">retrieval core</text><path d="M 778 840 L 826.5 840 Q 848 840 848 861.5 L 848 934.5 Q 848 956 869.5 956 L 886.5 956 Q 908 956 908 977.5 L 908 1007 Q 908 1012 913 1012 L 918 1012" fill="none" stroke="#369E94" stroke-width="4" stroke-linecap="butt"/><polygon points="920,1012 900,1022 900,1002" fill="#369E94"/><path d="M 1290 1496 L 1297 1496 Q 1304 1496 1311 1496 L 2273 1496 Q 2280 1496 2287 1496 L 2294 1496" fill="none" stroke="#757575" stroke-width="4" stroke-linecap="butt" stroke-dasharray="19 7"/><polygon points="2296,1496 2276,1506 2276,1486" fill="#757575"/><rect x="1736.8" y="1481" width="110.4" height="30" rx="15" fill="#F5F5F5" stroke="#D9D9D9" stroke-width="1"/><text x="1792" y="1496" fill="#000000" font-size="16" font-weight="700" text-anchor="middle" dominant-baseline="central">same role</text><rect x="1490" y="82" width="284" height="92" rx="6" fill="#DDF8E2" stroke="#14AE5C" stroke-width="4"/><text fill="#000000" font-size="15" font-weight="700" text-anchor="middle" dominant-baseline="central"><tspan x="1632" y="128">User Query</tspan></text><polygon points="1526.4,272 1737.6,272 1808,400 1456,400" fill="#FFC7C2" stroke="#F24822" stroke-width="4"/><text fill="#000000" font-size="15" font-weight="700" text-anchor="middle" dominant-baseline="central"><tspan x="1632" y="339.84">Query Understanding</tspan></text><rect x="1026" y="162" width="300" height="76" rx="6" fill="#FFECBD" stroke="#E8A302" stroke-width="4"/><text fill="#000000" font-size="15" font-weight="700" text-anchor="middle" dominant-baseline="central"><tspan x="1176" y="200">Chat History</tspan></text><rect x="1026" y="274" width="300" height="76" rx="6" fill="#FFECBD" stroke="#E8A302" stroke-width="4"/><text fill="#000000" font-size="15" font-weight="700" text-anchor="middle" dominant-baseline="central"><tspan x="1176" y="312">User Profile</tspan></text><rect x="1026" y="386" width="300" height="76" rx="6" fill="#FFECBD" stroke="#E8A302" stroke-width="4"/><text fill="#000000" font-size="15" font-weight="700" text-anchor="middle" dominant-baseline="central"><tspan x="1176" y="424">Domain Glossary</tspan></text><rect x="242" y="674" width="252" height="76" rx="6" fill="#C6FAF6" stroke="#369E94" stroke-width="4"/><text fill="#000000" font-size="15" font-weight="700" text-anchor="middle" dominant-baseline="central"><tspan x="368" y="712">Embed Query</tspan></text><rect x="514" y="802" width="252" height="76" rx="6" fill="#C6FAF6" stroke="#369E94" stroke-width="4"/><text fill="#000000" font-size="15" font-weight="700" text-anchor="middle" dominant-baseline="central"><tspan x="640" y="840">Vector Search</tspan></text><rect x="1026" y="802" width="252" height="76" rx="6" fill="#C6FAF6" stroke="#369E94" stroke-width="4"/><text fill="#000000" font-size="15" font-weight="700" text-anchor="middle" dominant-baseline="central"><tspan x="1152" y="840">Top-k Rerank</tspan></text><rect x="162" y="978" width="188" height="76" rx="6" fill="#DCCCFF" stroke="#9747FF" stroke-width="4"/><text fill="#000000" font-size="15" font-weight="700" text-anchor="middle" dominant-baseline="central"><tspan x="256" y="1009.6">Shard A</tspan></text><rect x="418" y="978" width="188" height="76" rx="6" fill="#DCCCFF" stroke="#9747FF" stroke-width="4"/><text fill="#000000" font-size="15" font-weight="700" text-anchor="middle" dominant-baseline="central"><tspan x="512" y="1009.6">Shard B</tspan></text><rect x="674" y="978" width="188" height="76" rx="6" fill="#DCCCFF" stroke="#9747FF" stroke-width="4"/><text fill="#000000" font-size="15" font-weight="700" text-anchor="middle" dominant-baseline="central"><tspan x="768" y="1009.6">Shard C</tspan></text><rect x="1026" y="1362" width="252" height="76" rx="6" fill="#FFC2EC" stroke="#F849C1" stroke-width="4"/><text fill="#000000" font-size="15" font-weight="700" text-anchor="middle" dominant-baseline="central"><tspan x="1152" y="1400">Answer Synthesis</tspan></text><rect x="1024" y="1472" width="256" height="48" rx="24" fill="#DDF8E2" stroke="#14AE5C" stroke-width="4"/><text fill="#000000" font-size="15" font-weight="700" text-anchor="middle" dominant-baseline="central"><tspan x="1152" y="1496">Response to User</tspan></text><rect x="258" y="1234" width="716" height="140" rx="6" fill="#FFECBD" stroke="#E8A302" stroke-width="4"/><text fill="#000000" font-size="15" font-weight="700" text-anchor="middle" dominant-baseline="central"><tspan x="616" y="1304">Good for small corpora — a single hop keeps latency low.</tspan></text><rect x="2258" y="610" width="332" height="76" rx="6" fill="#C6FAF6" stroke="#369E94" stroke-width="4"/><text fill="#000000" font-size="15" font-weight="700" text-anchor="middle" dominant-baseline="central"><tspan x="2424" y="648">Query Decomposition</tspan></text><rect x="1858" y="770" width="252" height="76" rx="6" fill="#FFE0C2" stroke="#EB7500" stroke-width="4"/><text fill="#000000" font-size="15" font-weight="700" text-anchor="middle" dominant-baseline="central"><tspan x="1984" y="808">Sub-query A</tspan></text><rect x="2738" y="770" width="252" height="76" rx="6" fill="#FFE0C2" stroke="#EB7500" stroke-width="4"/><text fill="#000000" font-size="15" font-weight="700" text-anchor="middle" dominant-baseline="central"><tspan x="2864" y="808">Sub-query B</tspan></text><rect x="2306" y="834" width="252" height="108" rx="6" fill="#E6E6E6" stroke="#757575" stroke-width="4"/><text fill="#000000" font-size="15" font-weight="700" text-anchor="middle" dominant-baseline="central"><tspan x="2432" y="879">Mode Router</tspan><tspan x="2432" y="897">(sparse vs…</tspan></text><rect x="1858" y="978" width="252" height="76" rx="6" fill="#DCCCFF" stroke="#9747FF" stroke-width="4"/><text fill="#000000" font-size="15" font-weight="700" text-anchor="middle" dominant-baseline="central"><tspan x="1984" y="1021.6">Retriever A</tspan></text><rect x="2738" y="978" width="252" height="76" rx="6" fill="#DCCCFF" stroke="#9747FF" stroke-width="4"/><text fill="#000000" font-size="15" font-weight="700" text-anchor="middle" dominant-baseline="central"><tspan x="2864" y="1021.6">Retriever B</tspan></text><rect x="2306" y="1154" width="252" height="76" rx="6" fill="#C6FAF6" stroke="#369E94" stroke-width="4"/><text fill="#000000" font-size="15" font-weight="700" text-anchor="middle" dominant-baseline="central"><tspan x="2432" y="1192">Fusion Ranker</tspan></text><rect x="2306" y="1362" width="252" height="76" rx="6" fill="#FFC2EC" stroke="#F849C1" stroke-width="4"/><text fill="#000000" font-size="15" font-weight="700" text-anchor="middle" dominant-baseline="central"><tspan x="2432" y="1400">Answer Synthesis</tspan></text><rect x="2304" y="1472" width="256" height="48" rx="24" fill="#DDF8E2" stroke="#14AE5C" stroke-width="4"/><text fill="#000000" font-size="15" font-weight="700" text-anchor="middle" dominant-baseline="central"><tspan x="2432" y="1496">Response to User</tspan></text><rect x="2642" y="1330" width="412" height="124" rx="6" fill="#FFECBD" stroke="#E8A302" stroke-width="4"/><text fill="#000000" font-size="15" font-weight="700" text-anchor="middle" dominant-baseline="central"><tspan x="2848" y="1383">Good for complex, multi-part questions —</tspan><tspan x="2848" y="1401">trades latency for recall.</tspan></text><rect x="514" y="1602" width="2236" height="140" rx="6" fill="#FFECBD" stroke="#E8A302" stroke-width="4"/><text fill="#000000" font-size="15" font-weight="700" text-anchor="middle" dominant-baseline="central"><tspan x="1632" y="1672">Tradeoff: single-stage is cheap and fast, but quality caps at one retrieval hop. Multi-stage wins on compound questions at the cost of moving parts. Pick per corpus size and query complexity.</tspan></text><rect x="930" y="978" width="188" height="68" rx="6" fill="#DCCCFF" stroke="#9747FF" stroke-width="4"/><text fill="#000000" font-size="15" font-weight="700" text-anchor="middle" dominant-baseline="central"><tspan x="1024" y="1006.24">Shard D</tspan></text><rect x="36" y="36" width="349.36" height="25" rx="6" fill="#E6E6E6" stroke="#C4C4C4" stroke-width="2"/><text x="47" y="48.5" fill="#000000" font-size="16" font-weight="700" text-anchor="start" dominant-baseline="central">Eval Suite S8 — Retrieval Designs</text><rect x="132" y="564" width="240.24" height="25" rx="6" fill="#E6E6E6" stroke="#757575" stroke-width="2"/><text x="143" y="576.5" fill="#000000" font-size="16" font-weight="700" text-anchor="start" dominant-baseline="central">Single-Stage Retrieval</text><rect x="1716" y="564" width="230.32" height="25" rx="6" fill="#E6E6E6" stroke="#757575" stroke-width="2"/><text x="1727" y="576.5" fill="#000000" font-size="16" font-weight="700" text-anchor="start" dominant-baseline="central">Multi-Stage Retrieval</text></svg>