<svg xmlns="http://www.w3.org/2000/svg" width="640" height="411" viewBox="-48 -48 3360 2160" preserveAspectRatio="xMidYMid meet" font-family="Inter, ui-sans-serif, system-ui, -apple-system, Segoe UI, sans-serif"><rect x="-48" y="-48" width="3360" height="2160" fill="#F5F5F5"/><rect x="33" y="33" width="3198" height="1998" rx="8.5" fill="#FFFFFF" stroke="#E6E6E6" stroke-width="2"/><rect x="2081" y="737" width="654" height="1086" rx="8.5" fill="#F8F5FF" stroke="#DCCCFF" stroke-width="2"/><rect x="1089" y="241" width="926" height="638" rx="8.5" fill="#EAFDFB" stroke="#C6FAF6" stroke-width="2"/><rect x="417" y="1009" width="1598" height="366" rx="8.5" fill="#F9F9F9" stroke="#E6E6E6" stroke-width="2"/><rect x="2369" y="161" width="734" height="526" rx="8.5" fill="#FFF0FA" stroke="#FFC2EC" stroke-width="2"/><rect x="2817" y="801" width="350" height="1022" rx="8.5" fill="#FFF7F0" stroke="#FFE0C2" stroke-width="2"/><rect x="1089" y="1537" width="830" height="366" rx="8.5" fill="#F9F9F9" stroke="#E6E6E6" stroke-width="2"/><rect x="417" y="257" width="398" height="606" rx="8.5" fill="#EBFFEE" stroke="#DDF8E2" stroke-width="2"/><path d="M 778 400 L 785 400 Q 792 400 799 400 L 924 400 Q 944 400 944 420 L 944 420 Q 944 440 964 440 L 1089 440 Q 1096 440 1103 440 L 1110 440" fill="none" stroke="#369E94" stroke-width="4" stroke-linecap="butt"/><polygon points="1112,440 1092,450 1092,430" fill="#369E94"/><rect x="884" y="405" width="120" height="30" rx="15" fill="#F5F5F5" stroke="#D9D9D9" stroke-width="1"/><text x="944" y="420" fill="#000000" font-size="16" font-weight="700" text-anchor="middle" dominant-baseline="central">raw events</text><path d="M 1354 440 L 1478 440" fill="none" stroke="#369E94" stroke-width="4" stroke-linecap="butt"/><polygon points="1480,440 1460,450 1460,430" fill="#369E94"/><rect x="1375.2" y="425" width="81.6" height="30" rx="15" fill="#F5F5F5" stroke="#D9D9D9" stroke-width="1"/><text x="1416" y="440" fill="#000000" font-size="16" font-weight="700" text-anchor="middle" dominant-baseline="central">buffer</text><path d="M 1600 506 L 1600 513 Q 1600 520 1600 527 L 1600 560 Q 1600 568 1608 568 L 1608 568 Q 1616 568 1616 576 L 1616 609 Q 1616 616 1616 623 L 1616 630" fill="none" stroke="#369E94" stroke-width="4" stroke-linecap="butt"/><polygon points="1616,632 1606,612 1626,612" fill="#369E94"/><rect x="1572" y="553" width="72" height="30" rx="15" fill="#F5F5F5" stroke="#D9D9D9" stroke-width="1"/><text x="1608" y="568" fill="#000000" font-size="16" font-weight="700" text-anchor="middle" dominant-baseline="central">drain</text><path d="M 1752 696 L 1752 696" fill="none" stroke="#369E94" stroke-width="4" stroke-linecap="butt"/><polygon points="1754,696 1734,706 1734,686" fill="#369E94"/><path d="M 1856 762 L 1856 769 Q 1856 776 1856 783 L 1856 922.5 Q 1856 944 1834.5 944 L 1789.5 944 Q 1768 944 1768 965.5 L 1768 1105 Q 1768 1112 1768 1119 L 1768 1126" fill="none" stroke="#369E94" stroke-width="4" stroke-linecap="butt"/><polygon points="1768,1128 1758,1108 1778,1108" fill="#369E94"/><rect x="1728" y="929" width="168" height="30" rx="15" fill="#F5F5F5" stroke="#D9D9D9" stroke-width="1"/><text x="1812" y="944" fill="#000000" font-size="16" font-weight="700" text-anchor="middle" dominant-baseline="central">enriched stream</text><path d="M 730 752 L 737 752 Q 744 752 751 752 L 898.5 752 Q 920 752 920 730.5 L 920 461.5 Q 920 440 941.5 440 L 1089 440 Q 1096 440 1103 440 L 1110 440" fill="none" stroke="#757575" stroke-width="4" stroke-linecap="butt"/><polygon points="1112,440 1092,450 1092,430" fill="#757575"/><rect x="831.2" y="581" width="177.6" height="30" rx="15" fill="#F5F5F5" stroke="#D9D9D9" stroke-width="1"/><text x="920" y="596" fill="#000000" font-size="16" font-weight="700" text-anchor="middle" dominant-baseline="central">collector config</text><path d="M 730 752 L 735 752 Q 740 752 740 757 L 740 894.5 Q 740 916 761.5 916 L 2102.5 916 Q 2124 916 2124 894.5 L 2124 853 Q 2124 848 2129 848 L 2134 848" fill="none" stroke="#757575" stroke-width="4" stroke-linecap="butt"/><polygon points="2136,848 2116,858 2116,838" fill="#757575"/><rect x="1319.2" y="901" width="129.6" height="30" rx="15" fill="#F5F5F5" stroke="#D9D9D9" stroke-width="1"/><text x="1384" y="916" fill="#000000" font-size="16" font-weight="700" text-anchor="middle" dominant-baseline="central">alert rules</text><path d="M 778 528 L 785 528 Q 792 528 799 528 L 922.5 528 Q 944 528 944 506.5 L 944 461.5 Q 944 440 965.5 440 L 1089 440 Q 1096 440 1103 440 L 1110 440" fill="none" stroke="#757575" stroke-width="4" stroke-linecap="butt"/><polygon points="1112,440 1092,450 1092,430" fill="#757575"/><rect x="879.2" y="469" width="129.6" height="30" rx="15" fill="#F5F5F5" stroke="#D9D9D9" stroke-width="1"/><text x="944" y="484" fill="#000000" font-size="16" font-weight="700" text-anchor="middle" dominant-baseline="central">auth tokens</text><path d="M 1334 128 L 1327 128 Q 1320 128 1313 128 L 1053.5 128 Q 1032 128 1032 149.5 L 1032 730.5 Q 1032 752 1010.5 752 L 751 752 Q 744 752 737 752 L 730 752" fill="none" stroke="#757575" stroke-width="4" stroke-linecap="butt"/><polygon points="728,752 748,742 748,762" fill="#757575"/><rect x="962.4" y="425" width="139.2" height="30" rx="15" fill="#F5F5F5" stroke="#D9D9D9" stroke-width="1"/><text x="1032" y="440" fill="#000000" font-size="16" font-weight="700" text-anchor="middle" dominant-baseline="central">tune configs</text><path d="M 1606 1192 L 1370 1192" fill="none" stroke="#757575" stroke-width="4" stroke-linecap="butt"/><polygon points="1368,1192 1388,1182 1388,1202" fill="#757575"/><rect x="1442.4" y="1177" width="91.2" height="30" rx="15" fill="#F5F5F5" stroke="#D9D9D9" stroke-width="1"/><text x="1488" y="1192" fill="#000000" font-size="16" font-weight="700" text-anchor="middle" dominant-baseline="central">age out</text><path d="M 826 1192 L 1046 1192" fill="none" stroke="#757575" stroke-width="4" stroke-linecap="butt"/><polygon points="1048,1192 1028,1202 1028,1182" fill="#757575"/><rect x="866.4" y="1177" width="139.2" height="30" rx="15" fill="#F5F5F5" stroke="#D9D9D9" stroke-width="1"/><text x="936" y="1192" fill="#000000" font-size="16" font-weight="700" text-anchor="middle" dominant-baseline="central">expiry rules</text><path d="M 1962 696 L 1969 696 Q 1976 696 1983 696 L 2026.5 696 Q 2048 696 2048 717.5 L 2048 826.5 Q 2048 848 2069.5 848 L 2113 848 Q 2120 848 2127 848 L 2134 848" fill="none" stroke="#EB7500" stroke-width="4" stroke-linecap="butt"/><polygon points="2136,848 2116,858 2116,838" fill="#EB7500"/><rect x="1959.2" y="757" width="177.6" height="30" rx="15" fill="#F5F5F5" stroke="#D9D9D9" stroke-width="1"/><text x="2048" y="772" fill="#000000" font-size="16" font-weight="700" text-anchor="middle" dominant-baseline="central">alert candidates</text><path d="M 2320 906 L 2320 1014" fill="none" stroke="#EB7500" stroke-width="4" stroke-linecap="butt"/><polygon points="2320,1016 2310,996 2330,996" fill="#EB7500"/><rect x="2274.4" y="945" width="91.2" height="30" rx="15" fill="#F5F5F5" stroke="#D9D9D9" stroke-width="1"/><text x="2320" y="960" fill="#000000" font-size="16" font-weight="700" text-anchor="middle" dominant-baseline="central">grouped</text><path d="M 2320 1130 L 2320 1137 Q 2320 1144 2320 1151 L 2320 1168 Q 2320 1184 2304 1184 L 2304 1184 Q 2288 1184 2288 1200 L 2288 1217 Q 2288 1224 2288 1231 L 2288 1238" fill="none" stroke="#EB7500" stroke-width="4" stroke-linecap="butt"/><polygon points="2288,1240 2278,1220 2298,1220" fill="#EB7500"/><path d="M 2288 1386 L 2288 1526" fill="none" stroke="#EB7500" stroke-width="4" stroke-linecap="butt"/><polygon points="2288,1528 2278,1508 2298,1508" fill="#EB7500"/><rect x="2228" y="1441" width="120" height="30" rx="15" fill="#F5F5F5" stroke="#D9D9D9" stroke-width="1"/><text x="2288" y="1456" fill="#000000" font-size="16" font-weight="700" text-anchor="middle" dominant-baseline="central">yes · page</text><path d="M 2410 1312 L 2417 1312 Q 2424 1312 2431 1312 L 2458.5 1312 Q 2480 1312 2480 1333.5 L 2480 1482.5 Q 2480 1504 2501.5 1504 L 2529 1504 Q 2536 1504 2543 1504 L 2550 1504" fill="none" stroke="#EB7500" stroke-width="4" stroke-linecap="butt"/><polygon points="2552,1504 2532,1514 2532,1494" fill="#EB7500"/><rect x="2405.6" y="1393" width="148.8" height="30" rx="15" fill="#F5F5F5" stroke="#D9D9D9" stroke-width="1"/><text x="2480" y="1408" fill="#000000" font-size="16" font-weight="700" text-anchor="middle" dominant-baseline="central">no · suppress</text><path d="M 2394 1584 L 2401 1584 Q 2408 1584 2415 1584 L 2594.5 1584 Q 2616 1584 2616 1605.5 L 2616 1642.5 Q 2616 1664 2637.5 1664 L 2817 1664 Q 2824 1664 2831 1664 L 2838 1664" fill="none" stroke="#EB7500" stroke-width="4" stroke-linecap="butt"/><polygon points="2840,1664 2820,1674 2820,1654" fill="#EB7500"/><rect x="2584.8" y="1609" width="62.4" height="30" rx="15" fill="#F5F5F5" stroke="#D9D9D9" stroke-width="1"/><text x="2616" y="1624" fill="#000000" font-size="16" font-weight="700" text-anchor="middle" dominant-baseline="central">page</text><path d="M 2288 1526 L 2288 1417.5 Q 2288 1396 2266.5 1396 L 2057.5 1396 Q 2036 1396 2036 1374.5 L 2036 81.5 Q 2036 60 2014.5 60 L 1941.5 60 Q 1920 60 1920 81.5 L 1920 174.5 Q 1920 196 1898.5 196 L 1501 196 Q 1496 196 1496 191 L 1496 186" fill="none" stroke="#EB7500" stroke-width="4" stroke-linecap="butt"/><polygon points="1496,184 1506,204 1486,204" fill="#EB7500"/><rect x="1966.4" y="561" width="139.2" height="30" rx="15" fill="#F5F5F5" stroke="#D9D9D9" stroke-width="1"/><text x="2036" y="576" fill="#000000" font-size="16" font-weight="700" text-anchor="middle" dominant-baseline="central">wake on-call</text><path d="M 2550 1504 L 2545 1504 Q 2540 1504 2540 1509 L 2540 1550.5 Q 2540 1572 2518.5 1572 L 2425.5 1572 Q 2404 1572 2404 1550.5 L 2404 1537.5 Q 2404 1516 2382.5 1516 L 1961.5 1516 Q 1940 1516 1940 1494.5 L 1940 1197 Q 1940 1192 1935 1192 L 1930 1192" fill="none" stroke="#757575" stroke-width="4" stroke-linecap="butt"/><polygon points="1928,1192 1948,1182 1948,1202" fill="#757575"/><rect x="2089.6" y="1501" width="100.8" height="30" rx="15" fill="#F5F5F5" stroke="#D9D9D9" stroke-width="1"/><text x="2140" y="1516" fill="#000000" font-size="16" font-weight="700" text-anchor="middle" dominant-baseline="central">log only</text><path d="M 2976 1606 L 2976 1599 Q 2976 1592 2976 1585 L 2976 1557.5 Q 2976 1536 2997.5 1536 L 3010.5 1536 Q 3032 1536 3032 1514.5 L 3032 1487 Q 3032 1480 3032 1473 L 3032 1466" fill="none" stroke="#EB7500" stroke-width="4" stroke-linecap="butt"/><polygon points="3032,1464 3042,1484 3022,1484" fill="#EB7500"/><rect x="2953.6" y="1521" width="100.8" height="30" rx="15" fill="#F5F5F5" stroke="#D9D9D9" stroke-width="1"/><text x="3004" y="1536" fill="#000000" font-size="16" font-weight="700" text-anchor="middle" dominant-baseline="central">assigned</text><path d="M 3036 1350 L 3036 1210" fill="none" stroke="#EB7500" stroke-width="4" stroke-linecap="butt"/><polygon points="3036,1208 3046,1228 3026,1228" fill="#EB7500"/><rect x="2976" y="1265" width="120" height="30" rx="15" fill="#F5F5F5" stroke="#D9D9D9" stroke-width="1"/><text x="3036" y="1280" fill="#000000" font-size="16" font-weight="700" text-anchor="middle" dominant-baseline="central">root cause</text><path d="M 3040 1094 L 3040 1087 Q 3040 1080 3040 1073 L 3040 1037.5 Q 3040 1016 3018.5 1016 L 2917.5 1016 Q 2896 1016 2896 994.5 L 2896 959 Q 2896 952 2896 945 L 2896 938" fill="none" stroke="#EB7500" stroke-width="4" stroke-linecap="butt"/><polygon points="2896,936 2906,956 2886,956" fill="#EB7500"/><rect x="2888.8" y="1001" width="158.4" height="30" rx="15" fill="#F5F5F5" stroke="#D9D9D9" stroke-width="1"/><text x="2968" y="1016" fill="#000000" font-size="16" font-weight="700" text-anchor="middle" dominant-baseline="central">status updates</text><path d="M 3032 1350 L 3032 1345 Q 3032 1340 3037 1340 L 3118.5 1340 Q 3140 1340 3140 1318.5 L 3140 441.5 Q 3140 420 3118.5 420 L 2917 420 Q 2912 420 2912 415 L 2912 410" fill="none" stroke="#F849C1" stroke-width="4" stroke-linecap="butt"/><polygon points="2912,408 2922,428 2902,428" fill="#F849C1"/><rect x="3056" y="805" width="168" height="30" rx="15" fill="#F5F5F5" stroke="#D9D9D9" stroke-width="1"/><text x="3140" y="820" fill="#000000" font-size="16" font-weight="700" text-anchor="middle" dominant-baseline="central">distill lessons</text><path d="M 2912 410 L 2912 534" fill="none" stroke="#F849C1" stroke-width="4" stroke-linecap="butt"/><polygon points="2912,536 2902,516 2922,516" fill="#F849C1"/><rect x="2847.2" y="457" width="129.6" height="30" rx="15" fill="#F5F5F5" stroke="#D9D9D9" stroke-width="1"/><text x="2912" y="472" fill="#000000" font-size="16" font-weight="700" text-anchor="middle" dominant-baseline="central">write facts</text><path d="M 2560 410 L 2560 415 Q 2560 420 2565 420 L 3118.5 420 Q 3140 420 3140 441.5 L 3140 1318.5 Q 3140 1340 3118.5 1340 L 3037 1340 Q 3032 1340 3032 1345 L 3032 1350" fill="none" stroke="#F849C1" stroke-width="4" stroke-linecap="butt"/><polygon points="3032,1352 3022,1332 3042,1332" fill="#F849C1"/><rect x="3065.6" y="629" width="148.8" height="30" rx="15" fill="#F5F5F5" stroke="#D9D9D9" stroke-width="1"/><text x="3140" y="644" fill="#000000" font-size="16" font-weight="700" text-anchor="middle" dominant-baseline="central">runbook steps</text><path d="M 2774 600 L 2767 600 Q 2760 600 2753 600 L 2661.5 600 Q 2640 600 2640 621.5 L 2640 826.5 Q 2640 848 2618.5 848 L 2527 848 Q 2520 848 2513 848 L 2506 848" fill="none" stroke="#14AE5C" stroke-width="4" stroke-linecap="butt" stroke-dasharray="19 7"/><polygon points="2504,848 2524,838 2524,858" fill="#14AE5C"/><rect x="2570.4" y="709" width="139.2" height="30" rx="15" fill="#F5F5F5" stroke="#D9D9D9" stroke-width="1"/><text x="2640" y="724" fill="#000000" font-size="16" font-weight="700" text-anchor="middle" dominant-baseline="central">tuning hints</text><path d="M 1208 1126 L 1208 1119 Q 1208 1112 1208 1105 L 1208 828 Q 1208 816 1220 816 L 1220 816 Q 1232 816 1232 804 L 1232 527 Q 1232 520 1232 513 L 1232 506" fill="none" stroke="#9747FF" stroke-width="4" stroke-linecap="butt" stroke-dasharray="19 7"/><polygon points="1232,504 1242,524 1222,524" fill="#9747FF"/><rect x="1179.2" y="801" width="81.6" height="30" rx="15" fill="#F5F5F5" stroke="#D9D9D9" stroke-width="1"/><text x="1220" y="816" fill="#000000" font-size="16" font-weight="700" text-anchor="middle" dominant-baseline="central">replay</text><path d="M 1638 1712 L 1466 1712" fill="none" stroke="#757575" stroke-width="4" stroke-linecap="butt"/><polygon points="1464,1712 1484,1702 1484,1722" fill="#757575"/><rect x="1492" y="1697" width="120" height="30" rx="15" fill="#F5F5F5" stroke="#D9D9D9" stroke-width="1"/><text x="1552" y="1712" fill="#000000" font-size="16" font-weight="700" text-anchor="middle" dominant-baseline="central">live state</text><path d="M 1768 1654 L 1768 1258" fill="none" stroke="#757575" stroke-width="4" stroke-linecap="butt"/><polygon points="1768,1256 1778,1276 1758,1276" fill="#757575"/><rect x="1674.4" y="1441" width="187.2" height="30" rx="15" fill="#F5F5F5" stroke="#D9D9D9" stroke-width="1"/><text x="1768" y="1456" fill="#000000" font-size="16" font-weight="700" text-anchor="middle" dominant-baseline="central">controls / status</text><rect x="466" y="354" width="300" height="92" rx="6" fill="#DDF8E2" stroke="#14AE5C" stroke-width="4"/><text fill="#000000" font-size="15" font-weight="700" text-anchor="middle" dominant-baseline="central"><tspan x="616" y="400">Agent fleet (hosts)</tspan></text><rect x="1122" y="386" width="220" height="108" rx="6" fill="#C6FAF6" stroke="#369E94" stroke-width="4"/><text fill="#000000" font-size="15" font-weight="700" text-anchor="middle" dominant-baseline="central"><tspan x="1232" y="440">Ingest gateway</tspan></text><rect x="434" y="706" width="284" height="92" rx="6" fill="#DDF8E2" stroke="#14AE5C" stroke-width="4"/><text fill="#000000" font-size="15" font-weight="700" text-anchor="middle" dominant-baseline="central"><tspan x="576" y="752">Config registry</tspan></text><rect x="482" y="482" width="284" height="92" rx="6" fill="#DDF8E2" stroke="#14AE5C" stroke-width="4"/><text fill="#000000" font-size="15" font-weight="700" text-anchor="middle" dominant-baseline="central"><tspan x="624" y="525.72">Telemetry secrets</tspan><tspan x="624" y="543.72">(collector tokens)</tspan></text><rect x="1490" y="386" width="220" height="108" rx="6" fill="#C6FAF6" stroke="#369E94" stroke-width="4"/><text fill="#000000" font-size="15" font-weight="700" text-anchor="middle" dominant-baseline="central"><tspan x="1600" y="447.84">Stream buffer</tspan></text><rect x="1490" y="642" width="252" height="108" rx="6" fill="#C6FAF6" stroke="#369E94" stroke-width="4"/><text fill="#000000" font-size="15" font-weight="700" text-anchor="middle" dominant-baseline="central"><tspan x="1616" y="687">Enrichment</tspan><tspan x="1616" y="705">(tags + geo)</tspan></text><rect x="1762" y="642" width="188" height="108" rx="6" fill="#C6FAF6" stroke="#369E94" stroke-width="4"/><text fill="#000000" font-size="15" font-weight="700" text-anchor="middle" dominant-baseline="central"><tspan x="1856" y="696">Router</tspan></text><rect x="514" y="1138" width="300" height="108" rx="6" fill="#E6E6E6" stroke="#757575" stroke-width="4"/><text fill="#000000" font-size="15" font-weight="700" text-anchor="middle" dominant-baseline="central"><tspan x="664" y="1183.04">Retention policy</tspan></text><rect x="1058" y="1138" width="300" height="108" rx="6" fill="#E6E6E6" stroke="#757575" stroke-width="4"/><text fill="#000000" font-size="15" font-weight="700" text-anchor="middle" dominant-baseline="central"><tspan x="1208" y="1199.84">Cold archive (S3)</tspan></text><rect x="1618" y="1138" width="300" height="108" rx="6" fill="#E6E6E6" stroke="#757575" stroke-width="4"/><text fill="#000000" font-size="15" font-weight="700" text-anchor="middle" dominant-baseline="central"><tspan x="1768" y="1199.84">Hot store (7d)</tspan></text><rect x="2146" y="802" width="348" height="92" rx="6" fill="#DCCCFF" stroke="#9747FF" stroke-width="4"/><text fill="#000000" font-size="15" font-weight="700" text-anchor="middle" dominant-baseline="central"><tspan x="2320" y="848">☐ Threshold eval</tspan></text><rect x="2146" y="1026" width="348" height="92" rx="6" fill="#DCCCFF" stroke="#9747FF" stroke-width="4"/><text fill="#000000" font-size="15" font-weight="700" text-anchor="middle" dominant-baseline="central"><tspan x="2320" y="1072">☐ Dedup + grouping</tspan></text><rect x="2178" y="1250" width="220" height="124" rx="6" fill="#FFE0C2" stroke="#EB7500" stroke-width="4"/><text fill="#000000" font-size="15" font-weight="700" text-anchor="middle" dominant-baseline="central"><tspan x="2288" y="1312">Escalate?</tspan></text><rect x="2194" y="1538" width="188" height="92" rx="6" fill="#FFE0C2" stroke="#EB7500" stroke-width="4"/><text fill="#000000" font-size="15" font-weight="700" text-anchor="middle" dominant-baseline="central"><tspan x="2288" y="1584">Page on-call</tspan></text><rect x="2562" y="1458" width="156" height="92" rx="6" fill="#FFC7C2" stroke="#F24822" stroke-width="4"/><text fill="#000000" font-size="15" font-weight="700" text-anchor="middle" dominant-baseline="central"><tspan x="2640" y="1495">Suppress</tspan><tspan x="2640" y="1513">(log only)</tspan></text><rect x="2850" y="1618" width="252" height="92" rx="6" fill="#FFE0C2" stroke="#EB7500" stroke-width="4"/><text fill="#000000" font-size="15" font-weight="700" text-anchor="middle" dominant-baseline="central"><tspan x="2976" y="1664">Triage splitter</tspan></text><rect x="2946" y="1362" width="172" height="92" rx="6" fill="#FFE0C2" stroke="#EB7500" stroke-width="4"/><text fill="#000000" font-size="15" font-weight="700" text-anchor="middle" dominant-baseline="central"><tspan x="3032" y="1399">Incident</tspan><tspan x="3032" y="1417">reviewer</tspan></text><rect x="2962" y="1106" width="156" height="92" rx="6" fill="#FFE0C2" stroke="#EB7500" stroke-width="4"/><text fill="#000000" font-size="15" font-weight="700" text-anchor="middle" dominant-baseline="central"><tspan x="3040" y="1143">Remediation</tspan><tspan x="3040" y="1161">fixer</tspan></text><rect x="2818" y="834" width="156" height="92" rx="6" fill="#FFE0C2" stroke="#EB7500" stroke-width="4"/><text fill="#000000" font-size="15" font-weight="700" text-anchor="middle" dominant-baseline="central"><tspan x="2896" y="872.32">Status page</tspan></text><rect x="2434" y="306" width="252" height="92" rx="6" fill="#FFC2EC" stroke="#F849C1" stroke-width="4"/><text fill="#000000" font-size="15" font-weight="700" text-anchor="middle" dominant-baseline="central"><tspan x="2567.68" y="346.24">Runbooks</tspan></text><rect x="2786" y="306" width="252" height="92" rx="6" fill="#FFC2EC" stroke="#F849C1" stroke-width="4"/><text fill="#000000" font-size="15" font-weight="700" text-anchor="middle" dominant-baseline="central"><tspan x="2912" y="352">Postmortem indexer</tspan></text><rect x="2786" y="546" width="252" height="108" rx="6" fill="#FFC2EC" stroke="#F849C1" stroke-width="4"/><text fill="#000000" font-size="15" font-weight="700" text-anchor="middle" dominant-baseline="central"><tspan x="2912" y="598.84">Knowledge graph</tspan><tspan x="2912" y="616.84">(kg.sqlite)</tspan></text><rect x="1344" y="80" width="304" height="96" rx="48" fill="#DDF8E2" stroke="#14AE5C" stroke-width="4"/><text fill="#000000" font-size="15" font-weight="700" text-anchor="middle" dominant-baseline="central"><tspan x="1496" y="128">On-call operator</tspan></text><rect x="66" y="258" width="284" height="220" rx="6" fill="#FFECBD" stroke="#E8A302" stroke-width="4"/><text fill="#000000" font-size="15" font-weight="700" text-anchor="middle" dominant-baseline="central"><tspan x="208" y="323">Streaming telemetry control</tspan><tspan x="208" y="341">plane: deterministic ingest</tspan><tspan x="208" y="359">owns ordering + enrichment;</tspan><tspan x="208" y="377">alerting is threshold- and</tspan><tspan x="208" y="395">dedup-gated; humans triage</tspan><tspan x="208" y="413">what pages.</tspan></text><rect x="66" y="530" width="284" height="172" rx="6" fill="#FFECBD" stroke="#E8A302" stroke-width="4"/><text fill="#000000" font-size="15" font-weight="700" text-anchor="middle" dominant-baseline="central"><tspan x="208" y="589">Coordination via hot store</tspan><tspan x="208" y="607">+ retention policy —</tspan><tspan x="208" y="625">services never touch each</tspan><tspan x="208" y="643">other&apos;s disks.</tspan></text><rect x="66" y="754" width="284" height="204" rx="6" fill="#FFECBD" stroke="#E8A302" stroke-width="4"/><text fill="#000000" font-size="15" font-weight="700" text-anchor="middle" dominant-baseline="central"><tspan x="208" y="838">A human acknowledges every</tspan><tspan x="208" y="856">page. Suppressed alerts are</tspan><tspan x="208" y="874">logged, never dropped.</tspan></text><rect x="1650" y="1666" width="236" height="92" rx="6" fill="#E6E6E6" stroke="#757575" stroke-width="4"/><text fill="#000000" font-size="15" font-weight="700" text-anchor="middle" dominant-baseline="central"><tspan x="1768" y="1712">API server</tspan></text><rect x="1202" y="1666" width="252" height="92" rx="6" fill="#E6E6E6" stroke="#757575" stroke-width="4"/><text fill="#000000" font-size="15" font-weight="700" text-anchor="middle" dominant-baseline="central"><tspan x="1328" y="1712">Ops dashboard</tspan></text><rect x="36" y="36" width="359.28" height="25" rx="6" fill="#E6E6E6" stroke="#C4C4C4" stroke-width="2"/><text x="47" y="48.5" fill="#000000" font-size="16" font-weight="700" text-anchor="start" dominant-baseline="central">Eval Suite S7 — Telemetry Platform</text><rect x="2084" y="740" width="121.2" height="25" rx="6" fill="#DCCCFF" stroke="#9747FF" stroke-width="2"/><text x="2095" y="752.5" fill="#000000" font-size="16" font-weight="700" text-anchor="start" dominant-baseline="central">Alert gate</text><rect x="1092" y="244" width="131.12" height="25" rx="6" fill="#C6FAF6" stroke="#369E94" stroke-width="2"/><text x="1103" y="256.5" fill="#000000" font-size="16" font-weight="700" text-anchor="start" dominant-baseline="central">Ingest Loop</text><rect x="420" y="1012" width="170.8" height="25" rx="6" fill="#E6E6E6" stroke="#757575" stroke-width="2"/><text x="431" y="1024.5" fill="#000000" font-size="16" font-weight="700" text-anchor="start" dominant-baseline="central">State substrate</text><rect x="2372" y="164" width="111.28" height="25" rx="6" fill="#FFC2EC" stroke="#F849C1" stroke-width="2"/><text x="2383" y="176.5" fill="#000000" font-size="16" font-weight="700" text-anchor="start" dominant-baseline="central">Knowledge</text><rect x="2820" y="804" width="180.72" height="25" rx="6" fill="#FFE0C2" stroke="#EB7500" stroke-width="2"/><text x="2831" y="816.5" fill="#000000" font-size="16" font-weight="700" text-anchor="start" dominant-baseline="central">Incident handoff</text><rect x="1092" y="1540" width="101.36" height="25" rx="6" fill="#E6E6E6" stroke="#757575" stroke-width="2"/><text x="1103" y="1552.5" fill="#000000" font-size="16" font-weight="700" text-anchor="start" dominant-baseline="central">Surfaces</text><rect x="420" y="260" width="180.72" height="25" rx="6" fill="#DDF8E2" stroke="#14AE5C" stroke-width="2"/><text x="431" y="272.5" fill="#000000" font-size="16" font-weight="700" text-anchor="start" dominant-baseline="central">Sources / Config</text></svg>