<svg xmlns="http://www.w3.org/2000/svg" xmlns:xlink="http://www.w3.org/1999/xlink" x="0px" y="0px" width="18px" height="18px" viewBox="0 0 18 18"><path d="m3.25,9v3.5944c0,.3981.2362.7583.6013.9171l4.75,2.0652c.2543.1106.5431.1106.7975,0l4.75-2.0652c.3651-.1587.6013-.5189.6013-.9171v-3.5944" fill="none" stroke="#000" stroke-linecap="round" stroke-linejoin="round" stroke-width="1.5" data-color="color-2"></path><line x1="9" y1="15.6585" x2="9" y2="7.25" fill="none" stroke="#000" stroke-linecap="round" stroke-linejoin="round" stroke-width="1.5" data-color="color-2"></line><path d="m9.3987,2.4234l5.3513,2.3266-5.75,2.5-5.75-2.5,5.3513-2.3266c.2543-.1106.5431-.1106.7975,0Z" fill="none" stroke="#000" stroke-linecap="round" stroke-linejoin="round" stroke-width="1.5"></path><polyline points="9 7.25 6.5 10.25 .75 7.75 3.25 4.75" fill="none" stroke="#000" stroke-linecap="round" stroke-linejoin="round" stroke-width="1.5"></polyline><polyline points="9 7.25 11.5 10.25 17.25 7.75 14.75 4.75" fill="none" stroke="#000" stroke-linecap="round" stroke-linejoin="round" stroke-width="1.5"></polyline></svg>