<svg xmlns="http://www.w3.org/2000/svg" width="640" height="304" viewBox="-48 -48 4144 1968" preserveAspectRatio="xMidYMid meet" font-family="Inter, ui-sans-serif, system-ui, -apple-system, Segoe UI, sans-serif"><defs><filter id="gc-decomp-harness-sticky-shadow" x="-20%" y="-20%" width="140%" height="140%"><feDropShadow dx="0" dy="3" stdDeviation="6" flood-color="#000000" flood-opacity="0.15"/></filter></defs><rect x="-48" y="-48" width="4144" height="1968" fill="#F5F5F5"/><rect x="33" y="33" width="3982" height="1806" rx="8.5" fill="#FFFFFF" stroke="#E6E6E6" stroke-width="2"/><rect x="977" y="225" width="1854" height="654" rx="8.5" fill="#F5FBFF" stroke="#C2E5FF" stroke-width="2"/><rect x="2897" y="225" width="446" height="718" rx="8.5" fill="#F8F5FF" stroke="#DCCCFF" stroke-width="2"/><rect x="1265" y="1137" width="1086" height="270" rx="8.5" fill="#EAFDFB" stroke="#C6FAF6" stroke-width="2"/><rect x="513" y="225" width="382" height="558" rx="8.5" fill="#EBFFEE" stroke="#DDF8E2" stroke-width="2"/><rect x="1953" y="1505" width="766" height="270" rx="8.5" fill="#F9F9F9" stroke="#E6E6E6" stroke-width="2"/><rect x="3473" y="529" width="350" height="526" rx="8.5" fill="#FFF7F0" stroke="#FFE0C2" stroke-width="2"/><rect x="3473" y="97" width="462" height="366" rx="8.5" fill="#FFF0FA" stroke="#FFC2EC" stroke-width="2"/><rect x="1009" y="1505" width="382" height="270" rx="8.5" fill="#FFF5F5" stroke="#FFC7C2" stroke-width="2"/><rect x="1025" y="593" width="350" height="206" rx="8.5" fill="#F9F9F9" stroke="#E6E6E6" stroke-width="2"/><path d="M 1120 226 L 1120 342" fill="none" stroke="#14AE5C" stroke-width="4" stroke-linecap="butt"/><polygon points="1120,344 1110,324 1130,324" fill="#14AE5C"/><rect x="1064.8" y="269" width="110.4" height="30" rx="15" fill="#F5F5F5" stroke="#D9D9D9" stroke-width="1"/><text x="1120" y="284" fill="#000000" font-size="16" font-weight="700" text-anchor="middle" dominant-baseline="central">run goals</text><path d="M 906 392 L 1014 392" fill="none" stroke="#14AE5C" stroke-width="4" stroke-linecap="butt"/><polygon points="1016,392 996,402 996,382" fill="#14AE5C"/><rect x="895.2" y="377" width="129.6" height="30" rx="15" fill="#F5F5F5" stroke="#D9D9D9" stroke-width="1"/><text x="960" y="392" fill="#000000" font-size="16" font-weight="700" text-anchor="middle" dominant-baseline="central">load config</text><path d="M 1226 392 L 1350 392" fill="none" stroke="#757575" stroke-width="4" stroke-linecap="butt"/><polygon points="1352,392 1332,402 1332,382" fill="#757575"/><rect x="1223.2" y="377" width="129.6" height="30" rx="15" fill="#F5F5F5" stroke="#D9D9D9" stroke-width="1"/><text x="1288" y="392" fill="#000000" font-size="16" font-weight="700" text-anchor="middle" dominant-baseline="central">start epoch</text><path d="M 1578 392 L 1702 392" fill="none" stroke="#757575" stroke-width="4" stroke-linecap="butt"/><polygon points="1704,392 1684,402 1684,382" fill="#757575"/><rect x="1565.6" y="377" width="148.8" height="30" rx="15" fill="#F5F5F5" stroke="#D9D9D9" stroke-width="1"/><text x="1640" y="392" fill="#000000" font-size="16" font-weight="700" text-anchor="middle" dominant-baseline="central">assign claims</text><path d="M 1840 474 L 1840 550" fill="none" stroke="#9747FF" stroke-width="4" stroke-linecap="butt"/><polygon points="1840,552 1830,532 1850,532" fill="#9747FF"/><polygon points="1840,472 1850,492 1830,492" fill="#9747FF"/><rect x="1756" y="497" width="168" height="30" rx="15" fill="#F5F5F5" stroke="#D9D9D9" stroke-width="1"/><text x="1840" y="512" fill="#000000" font-size="16" font-weight="700" text-anchor="middle" dominant-baseline="central">research / edit</text><path d="M 1978 392 L 2102 392" fill="none" stroke="#757575" stroke-width="4" stroke-linecap="butt"/><polygon points="2104,392 2084,402 2084,382" fill="#757575"/><rect x="1956" y="377" width="168" height="30" rx="15" fill="#F5F5F5" stroke="#D9D9D9" stroke-width="1"/><text x="2040" y="392" fill="#000000" font-size="16" font-weight="700" text-anchor="middle" dominant-baseline="central">candidate build</text><path d="M 2346 392 L 2353 392 Q 2360 392 2367 392 L 2449 392 Q 2456 392 2463 392 L 2470 392" fill="none" stroke="#757575" stroke-width="4" stroke-linecap="butt"/><polygon points="2472,392 2452,402 2452,382" fill="#757575"/><rect x="2372" y="377" width="72" height="30" rx="15" fill="#F5F5F5" stroke="#D9D9D9" stroke-width="1"/><text x="2408" y="392" fill="#000000" font-size="16" font-weight="700" text-anchor="middle" dominant-baseline="central">score</text><path d="M 2608 458 L 2608 465 Q 2608 472 2608 479 L 2608 529 Q 2608 536 2608 543 L 2608 550" fill="none" stroke="#14AE5C" stroke-width="4" stroke-linecap="butt"/><polygon points="2608,552 2598,532 2618,532" fill="#14AE5C"/><rect x="2543.2" y="489" width="129.6" height="30" rx="15" fill="#F5F5F5" stroke="#D9D9D9" stroke-width="1"/><text x="2608" y="504" fill="#000000" font-size="16" font-weight="700" text-anchor="middle" dominant-baseline="central">yes · match</text><path d="M 2608 326 L 2608 293.5 Q 2608 272 2586.5 272 L 1923 272 Q 1904 272 1904 291 L 1904 310" fill="none" stroke="#F24822" stroke-width="4" stroke-linecap="butt" stroke-dasharray="19 7"/><polygon points="1904,312 1894,292 1914,292" fill="#F24822"/><rect x="2204" y="257" width="120" height="30" rx="15" fill="#F5F5F5" stroke="#D9D9D9" stroke-width="1"/><text x="2264" y="272" fill="#000000" font-size="16" font-weight="700" text-anchor="middle" dominant-baseline="central">no · retry</text><path d="M 2608 650 L 2608 1146.5 Q 2608 1168 2586.5 1168 L 2213.5 1168 Q 2192 1168 2191.99998925 1189.4999999999973 L 2191.999973 1222.0000000000014" fill="none" stroke="#369E94" stroke-width="4" stroke-linecap="butt"/><polygon points="2192,1224 2182,1204 2202,1204" fill="#369E94"/><rect x="2567.2" y="1129" width="81.6" height="30" rx="15" fill="#F5F5F5" stroke="#D9D9D9" stroke-width="1"/><text x="2608" y="1144" fill="#000000" font-size="16" font-weight="700" text-anchor="middle" dominant-baseline="central">commit</text><path d="M 1408.000008 442 L 1408.000008 1126" fill="none" stroke="#369E94" stroke-width="4" stroke-linecap="butt"/><polygon points="1408,1128 1398,1108 1418,1108" fill="#369E94"/><rect x="1348" y="769" width="120" height="30" rx="15" fill="#F5F5F5" stroke="#D9D9D9" stroke-width="1"/><text x="1408" y="784" fill="#000000" font-size="16" font-weight="700" text-anchor="middle" dominant-baseline="central">read board</text><path d="M 1528 1222 L 1528 981.5 Q 1528 960 1506.5 960 L 1477.5 960 Q 1456 960 1455.999996090909 938.5000000000003 L 1455.9999058181818 441.99999999999983" fill="none" stroke="#369E94" stroke-width="4" stroke-linecap="butt"/><polygon points="1456,440 1466,460 1446,460" fill="#369E94"/><rect x="1372" y="853" width="168" height="30" rx="15" fill="#F5F5F5" stroke="#D9D9D9" stroke-width="1"/><text x="1456" y="868" fill="#000000" font-size="16" font-weight="700" text-anchor="middle" dominant-baseline="central">wake + snapshot</text><path d="M 1744 474 L 1744 506.5 Q 1744 528 1722.5 528 L 1221.5 528 Q 1200 528 1200 549.5 L 1200 582" fill="none" stroke="#EB7500" stroke-width="4" stroke-linecap="butt"/><polygon points="1200,584 1190,564 1210,564" fill="#EB7500"/><rect x="1416.8" y="513" width="110.4" height="30" rx="15" fill="#F5F5F5" stroke="#D9D9D9" stroke-width="1"/><text x="1472" y="528" fill="#000000" font-size="16" font-weight="700" text-anchor="middle" dominant-baseline="central">conflicts</text><path d="M 1320.000208 810 L 1320.000208 1126" fill="none" stroke="#369E94" stroke-width="4" stroke-linecap="butt"/><polygon points="1320,1128 1310,1108 1330,1108" fill="#369E94"/><rect x="1240.8" y="953" width="158.4" height="30" rx="15" fill="#F5F5F5" stroke="#D9D9D9" stroke-width="1"/><text x="1320" y="968" fill="#000000" font-size="16" font-weight="700" text-anchor="middle" dominant-baseline="central">resolved facts</text><path d="M 2362 1240.0000157260274 L 2914.5 1240.000000589041 Q 2936 1240 2936.0000092972973 1218.500000000002 L 2936.0001236756757 953.9999999999991" fill="none" stroke="#9747FF" stroke-width="4" stroke-linecap="butt"/><polygon points="2936,952 2946,972 2926,972" fill="#9747FF"/><rect x="2732" y="1225" width="120" height="30" rx="15" fill="#F5F5F5" stroke="#D9D9D9" stroke-width="1"/><text x="2792" y="1240" fill="#000000" font-size="16" font-weight="700" text-anchor="middle" dominant-baseline="central">candidates</text><path d="M 3120 410 L 3120 454" fill="none" stroke="#757575" stroke-width="4" stroke-linecap="butt"/><polygon points="3120,456 3110,436 3130,436" fill="#757575"/><rect x="3069.6" y="417" width="100.8" height="30" rx="15" fill="#F5F5F5" stroke="#D9D9D9" stroke-width="1"/><text x="3120" y="432" fill="#000000" font-size="16" font-weight="700" text-anchor="middle" dominant-baseline="central">score OK</text><path d="M 3120 554 L 3120 598" fill="none" stroke="#757575" stroke-width="4" stroke-linecap="butt"/><polygon points="3120,600 3110,580 3130,580" fill="#757575"/><rect x="3074.4" y="561" width="91.2" height="30" rx="15" fill="#F5F5F5" stroke="#D9D9D9" stroke-width="1"/><text x="3120" y="576" fill="#000000" font-size="16" font-weight="700" text-anchor="middle" dominant-baseline="central">lint OK</text><path d="M 3120 698 L 3120 705 Q 3120 712 3120 719 L 3120 721 Q 3120 728 3120 735 L 3120 742" fill="none" stroke="#757575" stroke-width="4" stroke-linecap="butt"/><polygon points="3120,744 3110,724 3130,724" fill="#757575"/><rect x="3074.4" y="705" width="91.2" height="30" rx="15" fill="#F5F5F5" stroke="#D9D9D9" stroke-width="1"/><text x="3120" y="720" fill="#000000" font-size="16" font-weight="700" text-anchor="middle" dominant-baseline="central">verdict</text><path d="M 3120 890 L 3120 897 Q 3120 904 3120 911 L 3120 977 Q 3120 984 3120 991 L 3120 998" fill="none" stroke="#F24822" stroke-width="4" stroke-linecap="butt"/><polygon points="3120,1000 3110,980 3130,980" fill="#F24822"/><rect x="3050.4" y="929" width="139.2" height="30" rx="15" fill="#F5F5F5" stroke="#D9D9D9" stroke-width="1"/><text x="3120" y="944" fill="#000000" font-size="16" font-weight="700" text-anchor="middle" dominant-baseline="central">yes · reject</text><path d="M 2950 816 L 2885.5 816 Q 2864 816 2864 837.5 L 2864 1178.5 Q 2864 1200 2842.5 1200 L 2251.000000000032 1200 Q 2240 1200 2240.000022 1211.00000000001 L 2240.000044 1222.00000000002" fill="none" stroke="#14AE5C" stroke-width="4" stroke-linecap="butt" stroke-dasharray="19 7"/><polygon points="2240,1224 2230,1204 2250,1204" fill="#14AE5C"/><rect x="2682.4" y="1185" width="187.2" height="30" rx="15" fill="#F5F5F5" stroke="#D9D9D9" stroke-width="1"/><text x="2776" y="1200" fill="#000000" font-size="16" font-weight="700" text-anchor="middle" dominant-baseline="central">no · new baseline</text><path d="M 2314 1288 L 3386.5 1288 Q 3408 1288 3408 1266.5 L 3408 685.5 Q 3408 664 3429.5 664 L 3526 664" fill="none" stroke="#EB7500" stroke-width="4" stroke-linecap="butt"/><polygon points="3528,664 3508,674 3508,654" fill="#EB7500"/><rect x="3152.8" y="1273" width="158.4" height="30" rx="15" fill="#F5F5F5" stroke="#D9D9D9" stroke-width="1"/><text x="3232" y="1288" fill="#000000" font-size="16" font-weight="700" text-anchor="middle" dominant-baseline="central">matched slices</text><path d="M 3648 714 L 3648 758" fill="none" stroke="#EB7500" stroke-width="4" stroke-linecap="butt"/><polygon points="3648,760 3638,740 3658,740" fill="#EB7500"/><rect x="3592.8" y="721" width="110.4" height="30" rx="15" fill="#F5F5F5" stroke="#D9D9D9" stroke-width="1"/><text x="3648" y="736" fill="#000000" font-size="16" font-weight="700" text-anchor="middle" dominant-baseline="central">split PRs</text><path d="M 3648 858 L 3648 902" fill="none" stroke="#EB7500" stroke-width="4" stroke-linecap="butt"/><polygon points="3648,904 3638,884 3658,884" fill="#EB7500"/><rect x="3597.6" y="865" width="100.8" height="30" rx="15" fill="#F5F5F5" stroke="#D9D9D9" stroke-width="1"/><text x="3648" y="880" fill="#000000" font-size="16" font-weight="700" text-anchor="middle" dominant-baseline="central">findings</text><path d="M 3648 1002 L 3648 1142" fill="none" stroke="#14AE5C" stroke-width="4" stroke-linecap="butt"/><polygon points="3648,1144 3638,1124 3658,1124" fill="#14AE5C"/><rect x="3597.6" y="1057" width="100.8" height="30" rx="15" fill="#F5F5F5" stroke="#D9D9D9" stroke-width="1"/><text x="3648" y="1072" fill="#000000" font-size="16" font-weight="700" text-anchor="middle" dominant-baseline="central">open PRs</text><path d="M 2730 600 L 2762.5 600 Q 2784 600 2784 578.5 L 2784 205.5 Q 2784 184 2805.4999999999995 183.999995 L 3462.0000000000005 183.9998423255814" fill="none" stroke="#F849C1" stroke-width="4" stroke-linecap="butt"/><polygon points="3464,184 3444,194 3444,174" fill="#F849C1"/><rect x="2804" y="169" width="168" height="30" rx="15" fill="#F5F5F5" stroke="#D9D9D9" stroke-width="1"/><text x="2888" y="184" fill="#000000" font-size="16" font-weight="700" text-anchor="middle" dominant-baseline="central">distill lessons</text><path d="M 3770 1184 L 3946.5 1184 Q 3968 1184 3968 1162.5 L 3968 229.5 Q 3968 208 3946.5 208 L 3898 208" fill="none" stroke="#F849C1" stroke-width="4" stroke-linecap="butt"/><polygon points="3896,208 3916,198 3916,218" fill="#F849C1"/><rect x="3884" y="745" width="168" height="30" rx="15" fill="#F5F5F5" stroke="#D9D9D9" stroke-width="1"/><text x="3968" y="760" fill="#000000" font-size="16" font-weight="700" text-anchor="middle" dominant-baseline="central">merged evidence</text><path d="M 3462 152.00003181132075 L 1797.5 152.0000004056604 Q 1776 152 1776 173.5 L 1776 310" fill="none" stroke="#F849C1" stroke-width="4" stroke-linecap="butt" stroke-dasharray="19 7"/><polygon points="1776,312 1766,292 1786,292" fill="#F849C1"/><rect x="2465.6" y="137" width="148.8" height="30" rx="15" fill="#F5F5F5" stroke="#D9D9D9" stroke-width="1"/><text x="2540" y="152" fill="#000000" font-size="16" font-weight="700" text-anchor="middle" dominant-baseline="central">context packs</text><path d="M 3599.999992 250 L 3599.999992 294" fill="none" stroke="#F849C1" stroke-width="4" stroke-linecap="butt"/><polygon points="3600,296 3590,276 3610,276" fill="#F849C1"/><rect x="3535.2" y="257" width="129.6" height="30" rx="15" fill="#F5F5F5" stroke="#D9D9D9" stroke-width="1"/><text x="3600" y="272" fill="#000000" font-size="16" font-weight="700" text-anchor="middle" dominant-baseline="central">write facts</text><path d="M 3808.000008 250 L 3808.000008 294" fill="none" stroke="#F849C1" stroke-width="4" stroke-linecap="butt"/><polygon points="3808,296 3798,276 3818,276" fill="#F849C1"/><rect x="3752.8" y="257" width="110.4" height="30" rx="15" fill="#F5F5F5" stroke="#D9D9D9" stroke-width="1"/><text x="3808" y="272" fill="#000000" font-size="16" font-weight="700" text-anchor="middle" dominant-baseline="central">index PRs</text><path d="M 1200.00032 1558 L 1200.00032 890" fill="none" stroke="#F24822" stroke-width="4" stroke-linecap="butt"/><polygon points="1200,888 1210,908 1190,908" fill="#F24822"/><rect x="1106.4" y="1209" width="187.2" height="30" rx="15" fill="#F5F5F5" stroke="#D9D9D9" stroke-width="1"/><text x="1200" y="1224" fill="#000000" font-size="16" font-weight="700" text-anchor="middle" dominant-baseline="central">recover / restart</text><path d="M 2362 1640 L 2470 1640" fill="none" stroke="#757575" stroke-width="4" stroke-linecap="butt"/><polygon points="2472,1640 2452,1650 2452,1630" fill="#757575"/><polygon points="2360,1640 2380,1630 2380,1650" fill="#757575"/><rect x="2356" y="1625" width="120" height="30" rx="15" fill="#F5F5F5" stroke="#D9D9D9" stroke-width="1"/><text x="2416" y="1640" fill="#000000" font-size="16" font-weight="700" text-anchor="middle" dominant-baseline="central">live state</text><path d="M 2248.000128 1590 L 2248.000128 1418" fill="none" stroke="#369E94" stroke-width="4" stroke-linecap="butt"/><polygon points="2248,1416 2258,1436 2238,1436" fill="#369E94"/><rect x="2154.4" y="1489" width="187.2" height="30" rx="15" fill="#F5F5F5" stroke="#D9D9D9" stroke-width="1"/><text x="2248" y="1504" fill="#000000" font-size="16" font-weight="700" text-anchor="middle" dominant-baseline="central">controls / status</text><rect x="64" y="224" width="368" height="416" fill="#FFE299" filter="url(#gc-decomp-harness-sticky-shadow)"/><text fill="rgba(0, 0, 0, 0.8)" font-size="24" font-weight="400" text-anchor="start" dominant-baseline="central"><tspan x="85" y="270">Bun/TS control plane</tspan><tspan x="85" y="306">for high-parallelism</tspan><tspan x="85" y="342">GameCube</tspan><tspan x="85" y="378">decompilation</tspan><tspan x="85" y="414">(Melee).</tspan><tspan x="85" y="450">Deterministic runner</tspan><tspan x="85" y="486">owns</tspan><tspan x="85" y="522">state/scheduling/vali</tspan><tspan x="85" y="558">dation; many Pi</tspan><tspan x="85" y="594">agents research,…</tspan></text><rect x="64" y="720" width="368" height="192" fill="#FFE299" filter="url(#gc-decomp-harness-sticky-shadow)"/><text fill="rgba(0, 0, 0, 0.8)" font-size="24" font-weight="400" text-anchor="start" dominant-baseline="central"><tspan x="85" y="766">Coordination via</tspan><tspan x="85" y="802">board + file locks +</tspan><tspan x="85" y="838">artifacts — no agent…</tspan></text><rect x="64" y="992" width="368" height="144" fill="#FFE299" filter="url(#gc-decomp-harness-sticky-shadow)"/><text fill="rgba(0, 0, 0, 0.8)" font-size="24" font-weight="400" text-anchor="start" dominant-baseline="central"><tspan x="85" y="1038">Human reviews what</tspan><tspan x="85" y="1074">survives validation</tspan></text><rect x="560" y="288" width="288" height="64" rx="32" fill="#FFFFFF" stroke="#757575" stroke-width="4"/><text fill="#000000" font-size="15" font-weight="700" text-anchor="middle" dominant-baseline="central"><tspan x="704" y="311">Melee checkout</tspan><tspan x="704" y="329">(doldecomp)</tspan></text><rect x="560" y="384" width="288" height="64" rx="32" fill="#FFFFFF" stroke="#757575" stroke-width="4"/><text fill="#000000" font-size="15" font-weight="700" text-anchor="middle" dominant-baseline="central"><tspan x="704" y="416">project.json descriptor</tspan></text><rect x="560" y="480" width="288" height="64" rx="32" fill="#FFFFFF" stroke="#757575" stroke-width="4"/><text fill="#000000" font-size="15" font-weight="700" text-anchor="middle" dominant-baseline="central"><tspan x="704" y="503">Run goals (match %</tspan><tspan x="704" y="521">target)</tspan></text><rect x="560" y="576" width="288" height="64" rx="32" fill="#FFFFFF" stroke="#757575" stroke-width="4"/><text fill="#000000" font-size="15" font-weight="700" text-anchor="middle" dominant-baseline="central"><tspan x="704" y="608">Pi provider config</tspan></text><rect x="560" y="672" width="288" height="64" rx="32" fill="#FFFFFF" stroke="#757575" stroke-width="4"/><text fill="#000000" font-size="15" font-weight="700" text-anchor="middle" dominant-baseline="central"><tspan x="704" y="704">Secrets (local.env)</tspan></text><svg x="1056" y="80" width="128" height="112" viewBox="0 0 18 18" preserveAspectRatio="xMidYMid meet" fill="none" stroke="#14AE5C" stroke-width="0.75" stroke-linecap="round" stroke-linejoin="round"><g fill="#DDF8E2" stroke="none"><circle cx="9" cy="4.5" r="2.75"/><path d="M13.762,15.516c.86-.271,1.312-1.221,.947-2.045-.97-2.191-3.159-3.721-5.709-3.721s-4.739,1.53-5.709,3.721c-.365,.825,.087,1.774,.947,2.045,1.225,.386,2.846,.734,4.762,.734s3.537-.348,4.762-.734Z"/></g><g><circle cx="9" cy="4.5" r="2.75"/><path d="M13.762,15.516c.86-.271,1.312-1.221,.947-2.045-.97-2.191-3.159-3.721-5.709-3.721s-4.739,1.53-5.709,3.721c-.365,.825,.087,1.774,.947,2.045,1.225,.386,2.846,.734,4.762,.734s3.537-.348,4.762-.734Z"/></g></svg><text fill="#000000" font-size="15" font-weight="700" text-anchor="middle" dominant-baseline="central"><tspan x="1120" y="207">Operator</tspan></text><rect x="1026" y="354" width="188" height="76" rx="6" fill="#C2E5FF" stroke="#0D99FF" stroke-width="4"/><text fill="#000000" font-size="15" font-weight="700" text-anchor="middle" dominant-baseline="central"><tspan x="1120" y="392">Job runner CLI</tspan></text><rect x="1362" y="354" width="204" height="76" rx="6" fill="#C2E5FF" stroke="#0D99FF" stroke-width="4"/><text fill="#000000" font-size="15" font-weight="700" text-anchor="middle" dominant-baseline="central"><tspan x="1464" y="383">Deterministic</tspan><tspan x="1464" y="401">scheduler</tspan></text><rect x="1714" y="322" width="252" height="140" rx="6" fill="#FFE0C2" stroke="#EB7500" stroke-width="4"/><text fill="#000000" font-size="15" font-weight="700" text-anchor="middle" dominant-baseline="central"><tspan x="1840" y="392">Worker pool (Pi agents)</tspan></text><rect x="1714" y="562" width="252" height="76" rx="6" fill="#DCCCFF" stroke="#9747FF" stroke-width="4"/><text fill="#000000" font-size="15" font-weight="700" text-anchor="middle" dominant-baseline="central"><tspan x="1840" y="582">Toolpack calls (ghidra</tspan><tspan x="1840" y="600">· opseq · m2c ·</tspan><tspan x="1840" y="618">permuter)</tspan></text><rect x="2114" y="354" width="220" height="76" rx="6" fill="#C2E5FF" stroke="#0D99FF" stroke-width="4"/><text fill="#000000" font-size="15" font-weight="700" text-anchor="middle" dominant-baseline="central"><tspan x="2224" y="383">Compile + objdiff</tspan><tspan x="2224" y="401">validate</tspan></text><polygon points="2608,336 2736,392 2608,448 2480,392" fill="#FFECBD" stroke="#E8A302" stroke-width="4"/><text fill="#000000" font-size="15" font-weight="700" text-anchor="middle" dominant-baseline="central"><tspan x="2608" y="392">Exact match?</tspan></text><rect x="2498" y="562" width="220" height="76" rx="6" fill="#DDF8E2" stroke="#14AE5C" stroke-width="4"/><text fill="#000000" font-size="15" font-weight="700" text-anchor="middle" dominant-baseline="central"><tspan x="2608" y="591">Checkpoint + facts +</tspan><tspan x="2608" y="609">patch</tspan></text><rect x="1074" y="674" width="252" height="76" rx="6" fill="#FFFFFF" stroke="#757575" stroke-width="4"/><text fill="#000000" font-size="15" font-weight="700" text-anchor="middle" dominant-baseline="central"><tspan x="1200" y="703">Merge conflicting</tspan><tspan x="1200" y="721">outputs</tspan></text><rect x="1314" y="1234" width="284" height="108" rx="6" fill="#C6FAF6" stroke="#369E94" stroke-width="4"/><text fill="#000000" font-size="15" font-weight="700" text-anchor="middle" dominant-baseline="central"><tspan x="1456" y="1295.84">Epochs / claims / events</tspan></text><rect x="1666" y="1234" width="284" height="108" rx="6" fill="#C6FAF6" stroke="#369E94" stroke-width="4"/><text fill="#000000" font-size="15" font-weight="700" text-anchor="middle" dominant-baseline="central"><tspan x="1808" y="1295.84">Artifacts + prompts (audit)</tspan></text><rect x="2018" y="1234" width="284" height="108" rx="6" fill="#C6FAF6" stroke="#369E94" stroke-width="4"/><text fill="#000000" font-size="15" font-weight="700" text-anchor="middle" dominant-baseline="central"><tspan x="2160" y="1295.84">Save points</tspan></text><rect x="2978" y="322" width="284" height="76" rx="6" fill="#DCCCFF" stroke="#9747FF" stroke-width="4"/><text fill="#000000" font-size="15" font-weight="700" text-anchor="middle" dominant-baseline="central"><tspan x="3120" y="360">objdiff scoring</tspan></text><rect x="2978" y="466" width="284" height="76" rx="6" fill="#DCCCFF" stroke="#9747FF" stroke-width="4"/><text fill="#000000" font-size="15" font-weight="700" text-anchor="middle" dominant-baseline="central"><tspan x="3120" y="504">QA lint gates</tspan></text><rect x="2978" y="610" width="284" height="76" rx="6" fill="#DCCCFF" stroke="#9747FF" stroke-width="4"/><text fill="#000000" font-size="15" font-weight="700" text-anchor="middle" dominant-baseline="central"><tspan x="3120" y="648">Regression check</tspan></text><polygon points="3120,752 3280,816 3120,880 2960,816" fill="#FFECBD" stroke="#E8A302" stroke-width="4"/><text fill="#000000" font-size="15" font-weight="700" text-anchor="middle" dominant-baseline="central"><tspan x="3120" y="816">Regression?</tspan></text><rect x="3026" y="1010" width="188" height="60" rx="6" fill="#FFC7C2" stroke="#F24822" stroke-width="4"/><text fill="#000000" font-size="15" font-weight="700" text-anchor="middle" dominant-baseline="central"><tspan x="3120" y="1040">Reject candidate</tspan></text><rect x="3538" y="626" width="220" height="76" rx="6" fill="#FFE0C2" stroke="#EB7500" stroke-width="4"/><text fill="#000000" font-size="15" font-weight="700" text-anchor="middle" dominant-baseline="central"><tspan x="3648" y="664">PR splitter</tspan></text><rect x="3538" y="770" width="220" height="76" rx="6" fill="#FFE0C2" stroke="#EB7500" stroke-width="4"/><text fill="#000000" font-size="15" font-weight="700" text-anchor="middle" dominant-baseline="central"><tspan x="3648" y="808">PR reviewer</tspan></text><rect x="3538" y="914" width="220" height="76" rx="6" fill="#FFE0C2" stroke="#EB7500" stroke-width="4"/><text fill="#000000" font-size="15" font-weight="700" text-anchor="middle" dominant-baseline="central"><tspan x="3648" y="952">PR fixer</tspan></text><rect x="3536" y="1152" width="224" height="64" rx="32" fill="#DDF8E2" stroke="#14AE5C" stroke-width="4"/><text fill="#000000" font-size="15" font-weight="700" text-anchor="middle" dominant-baseline="central"><tspan x="3648" y="1184">GitHub PRs</tspan></text><rect x="3522" y="178" width="156" height="60" rx="6" fill="#FFC2EC" stroke="#F849C1" stroke-width="4"/><text fill="#000000" font-size="15" font-weight="700" text-anchor="middle" dominant-baseline="central"><tspan x="3600" y="208">Curator</tspan></text><rect x="3730" y="178" width="156" height="60" rx="6" fill="#FFC2EC" stroke="#F849C1" stroke-width="4"/><text fill="#000000" font-size="15" font-weight="700" text-anchor="middle" dominant-baseline="central"><tspan x="3808" y="208">PR indexer</tspan></text><rect x="3570" y="306" width="268" height="108" rx="6" fill="#FFC2EC" stroke="#F849C1" stroke-width="4"/><text fill="#000000" font-size="15" font-weight="700" text-anchor="middle" dominant-baseline="central"><tspan x="3704" y="358.84">Knowledge graph</tspan><tspan x="3704" y="376.84">(graph.sqlite)</tspan></text><svg x="1104" y="1568" width="192" height="144" viewBox="0 0 18 18" preserveAspectRatio="xMidYMid meet" fill="none" stroke="#F24822" stroke-width="0.59" stroke-linecap="round" stroke-linejoin="round"><g fill="#FFC7C2" stroke="none"><path d="M9.305,1.848l5.25,1.68c.414,.133,.695,.518,.695,.952v6.52c0,3.03-4.684,4.748-5.942,5.155-.203,.066-.413,.066-.616,0-1.258-.407-5.942-2.125-5.942-5.155V4.48c0-.435,.281-.82,.695-.952l5.25-1.68c.198-.063,.411-.063,.61,0Z"/><path d="M 6.497 9.75 L 8.106 11.25 L 11.503 6.75"/></g><g><path d="M9.305,1.848l5.25,1.68c.414,.133,.695,.518,.695,.952v6.52c0,3.03-4.684,4.748-5.942,5.155-.203,.066-.413,.066-.616,0-1.258-.407-5.942-2.125-5.942-5.155V4.48c0-.435,.281-.82,.695-.952l5.25-1.68c.198-.063,.411-.063,.61,0Z"/><path d="M 6.497 9.75 L 8.106 11.25 L 11.503 6.75"/></g></svg><text fill="#000000" font-size="15" font-weight="700" text-anchor="middle" dominant-baseline="central"><tspan x="1200" y="1727">Guardian (babysit)</tspan></text><rect x="2146" y="1602" width="204" height="76" rx="6" fill="#C6FAF6" stroke="#369E94" stroke-width="4"/><text fill="#000000" font-size="15" font-weight="700" text-anchor="middle" dominant-baseline="central"><tspan x="2248" y="1640">Bun API server</tspan></text><rect x="2482" y="1602" width="188" height="76" rx="6" fill="#C6FAF6" stroke="#369E94" stroke-width="4"/><text fill="#000000" font-size="15" font-weight="700" text-anchor="middle" dominant-baseline="central"><tspan x="2576" y="1640">React dashboard</tspan></text><rect x="36" y="36" width="250.16" height="25" rx="6" fill="#E6E6E6" stroke="#C4C4C4" stroke-width="2"/><text x="47" y="48.5" fill="#000000" font-size="16" font-weight="700" text-anchor="start" dominant-baseline="central">GameCube Decomp Harness</text><rect x="980" y="228" width="210.48" height="25" rx="6" fill="#C2E5FF" stroke="#0D99FF" stroke-width="2"/><text x="991" y="240.5" fill="#000000" font-size="16" font-weight="700" text-anchor="start" dominant-baseline="central">Runner + Agent Loop</text><rect x="2900" y="228" width="121.2" height="25" rx="6" fill="#DCCCFF" stroke="#9747FF" stroke-width="2"/><text x="2911" y="240.5" fill="#000000" font-size="16" font-weight="700" text-anchor="start" dominant-baseline="central">Score gate</text><rect x="1268" y="1140" width="319.6" height="25" rx="6" fill="#C6FAF6" stroke="#369E94" stroke-width="2"/><text x="1279" y="1152.5" fill="#000000" font-size="16" font-weight="700" text-anchor="start" dominant-baseline="central">State substrate — SQLite board</text><rect x="516" y="228" width="180.72" height="25" rx="6" fill="#DDF8E2" stroke="#14AE5C" stroke-width="2"/><text x="527" y="240.5" fill="#000000" font-size="16" font-weight="700" text-anchor="start" dominant-baseline="central">Project / Config</text><rect x="1956" y="1508" width="101.36" height="25" rx="6" fill="#E6E6E6" stroke="#757575" stroke-width="2"/><text x="1967" y="1520.5" fill="#000000" font-size="16" font-weight="700" text-anchor="start" dominant-baseline="central">Surfaces</text><rect x="3476" y="532" width="121.2" height="25" rx="6" fill="#FFE0C2" stroke="#EB7500" stroke-width="2"/><text x="3487" y="544.5" fill="#000000" font-size="16" font-weight="700" text-anchor="start" dominant-baseline="central">PR handoff</text><rect x="3476" y="100" width="111.28" height="25" rx="6" fill="#FFC2EC" stroke="#F849C1" stroke-width="2"/><text x="3487" y="112.5" fill="#000000" font-size="16" font-weight="700" text-anchor="start" dominant-baseline="central">Knowledge</text><rect x="1012" y="1508" width="160.88" height="25" rx="6" fill="#FFC7C2" stroke="#F24822" stroke-width="2"/><text x="1023" y="1520.5" fill="#000000" font-size="16" font-weight="700" text-anchor="start" dominant-baseline="central">Process health</text><rect x="1028" y="596" width="220.4" height="25" rx="6" fill="#E6E6E6" stroke="#757575" stroke-width="2"/><text x="1039" y="608.5" fill="#000000" font-size="16" font-weight="700" text-anchor="start" dominant-baseline="central">Integration resolver</text></svg>